<?xml version="1.0" encoding="UTF-8" standalone="no"?>
<!DOCTYPE svg PUBLIC "-//W3C//DTD SVG 1.1//EN" "http://www.w3.org/Graphics/SVG/1.1/DTD/svg11.dtd">
<svg width="100%" height="100%" viewBox="0 0 639 617" version="1.1" xmlns="http://www.w3.org/2000/svg" xmlns:xlink="http://www.w3.org/1999/xlink" xml:space="preserve" xmlns:serif="http://www.serif.com/" style="fill-rule:evenodd;clip-rule:evenodd;stroke-linejoin:round;stroke-miterlimit:2;">
    <g transform="matrix(1.38971,0,0,1.38971,-374.629,-433.081)">
        <path d="M503.088,611.585L568.762,687.325L654.92,628.597L654.026,646.919L503.088,755.03L503.088,611.585Z" style="fill:rgb(86,101,32);"/>
    </g>
    <g transform="matrix(1.38971,0,0,1.38971,-374.629,-433.081)">
        <path d="M503.088,570.194L569.979,645.259L709.705,559.045L633.153,486.952L503.088,570.194Z" style="fill:rgb(86,101,32);"/>
    </g>
    <g transform="matrix(1.38971,0,0,1.38971,-374.629,-433.081)">
        <path d="M503.088,389.59L633.052,485.344L728.887,416.429L593.62,322.039L503.088,389.59Z" style="fill:rgb(86,101,32);"/>
    </g>
    <g transform="matrix(1.38971,0,0,1.38971,-374.629,-433.081)">
        <path d="M358.017,469.941L494.028,388.929L404.097,311.634L269.573,396.362L358.017,469.941Z" style="fill:rgb(86,101,32);"/>
    </g>
    <g transform="matrix(1.38971,0,0,1.38971,-374.629,-433.081)">
        <path d="M485.109,566.106L418.219,645.259L279.235,547.236L355.788,476.63L485.109,566.106Z" style="fill:rgb(86,101,32);"/>
    </g>
    <g transform="matrix(1.38971,0,0,1.38971,-374.629,-433.081)">
        <path d="M334.396,629.85L335.37,645.259L487.096,755.03L485.109,611.585L420.366,688.3L334.396,629.85Z" style="fill:rgb(86,101,32);"/>
    </g>
</svg>
